%TF.GenerationSoftware,KiCad,Pcbnew,10.0.4*%
%TF.CreationDate,2026-10-07T16:03:05+02:00*%
%TF.ProjectId,half life macro pad,68616c66-206c-4696-9665-206d6163726f,rev?*%
%TF.SameCoordinates,Original*%
%TF.FileFunction,Copper,L2,Bot*%
%TF.FilePolarity,Positive*%
%FSLAX46Y46*%
G04 Gerber Fmt 4.6, Leading zero omitted, Abs format (unit mm)*
G04 Created by KiCad (PCBNEW 10.0.4) date 2026-10-07 16:03:05*
%MOMM*%
%LPD*%
G01*
G04 APERTURE LIST*
G04 Aperture macros list*
%AMRoundRect*
0 Rectangle with rounded corners*
0 $1 Rounding radius*
0 $2 $3 $4 $5 $6 $7 $8 $9 X,Y pos of 4 corners*
0 Add a 4 corners polygon primitive as box body*
4,1,4,$2,$3,$4,$5,$6,$7,$8,$9,$2,$3,0*
0 Add four circle primitives for the rounded corners*
1,1,$1+$1,$2,$3*
1,1,$1+$1,$4,$5*
1,1,$1+$1,$6,$7*
1,1,$1+$1,$8,$9*
0 Add four rect primitives between the rounded corners*
20,1,$1+$1,$2,$3,$4,$5,0*
20,1,$1+$1,$4,$5,$6,$7,0*
20,1,$1+$1,$6,$7,$8,$9,0*
20,1,$1+$1,$8,$9,$2,$3,0*%
G04 Aperture macros list end*
%TA.AperFunction,SMDPad,CuDef*%
%ADD10R,1.600000X0.850000*%
%TD*%
%TA.AperFunction,ComponentPad*%
%ADD11C,2.200000*%
%TD*%
%TA.AperFunction,SMDPad,CuDef*%
%ADD12RoundRect,0.225000X0.375000X-0.225000X0.375000X0.225000X-0.375000X0.225000X-0.375000X-0.225000X0*%
%TD*%
%TA.AperFunction,ComponentPad*%
%ADD13R,3.500000X1.700000*%
%TD*%
%TA.AperFunction,ComponentPad*%
%ADD14O,3.600000X1.700000*%
%TD*%
%TA.AperFunction,ComponentPad*%
%ADD15O,3.700000X1.700000*%
%TD*%
%TA.AperFunction,Conductor*%
%ADD16C,0.200000*%
%TD*%
G04 APERTURE END LIST*
D10*
%TO.P,D3,3,VSS_3*%
%TO.N,Net-(D1-VSS)*%
X146900000Y-93950000D03*
%TD*%
D11*
%TO.P,SW3,1,1_1*%
%TO.N,Net-(U1-PA4_A1_D1)*%
X147440000Y-78720000D03*
%TO.P,SW3,2,2_2*%
%TO.N,Net-(D5-K)*%
X141090000Y-81260000D03*
%TD*%
%TO.P,SW4,1,1_1*%
%TO.N,Net-(U1-PA4_A1_D1)*%
X128240000Y-59720000D03*
%TO.P,SW4,2,2_2*%
%TO.N,Net-(D6-K)*%
X121890000Y-62260000D03*
%TD*%
%TO.P,SW2,1,1_1*%
%TO.N,Net-(U1-PA02_A0_D0)*%
X128240000Y-78720000D03*
%TO.P,SW2,2,2_2*%
%TO.N,Net-(D6-A)*%
X121890000Y-81260000D03*
%TD*%
%TO.P,SW1,1,1_1*%
%TO.N,Net-(U1-PA02_A0_D0)*%
X109160000Y-78720000D03*
%TO.P,SW1,2,2_2*%
%TO.N,Net-(D5-A)*%
X102810000Y-81260000D03*
%TD*%
D10*
%TO.P,D1,3,VSS_3*%
%TO.N,Net-(D1-VSS)*%
X108100000Y-94050000D03*
%TD*%
D12*
%TO.P,D8,1,K_1*%
%TO.N,Net-(D6-A)*%
X134400000Y-85450000D03*
%TD*%
D10*
%TO.P,D4,3,VSS_3*%
%TO.N,Net-(D1-VSS)*%
X127530000Y-56075000D03*
%TD*%
D12*
%TO.P,D6,2,A_2*%
%TO.N,Net-(D6-A)*%
X134400000Y-63450000D03*
%TD*%
D13*
%TO.P,U1,1,PA02_A0_D0_1*%
%TO.N,Net-(U1-PA02_A0_D0)*%
X97650000Y-55800000D03*
D14*
%TO.P,U1,2,PA4_A1_D1_2*%
%TO.N,Net-(U1-PA4_A1_D1)*%
X97650000Y-58340000D03*
%TO.P,U1,3,PA10_A2_D2_3*%
%TO.N,Net-(D7-A)*%
X97650000Y-60880000D03*
%TO.P,U1,4,PA11_A3_D3_4*%
%TO.N,Net-(D8-A)*%
X97650000Y-63420000D03*
%TO.P,U1,5,PA8_A4_D4_SDA_5*%
%TO.N,Net-(D1-DIN)*%
X97650000Y-65960000D03*
%TO.P,U1,6,PA9_A5_D5_SCL_6*%
%TO.N,unconnected-(U1-PA9_A5_D5_SCL-Pad6)*%
X97650000Y-68500000D03*
%TO.P,U1,7,PB08_A6_D6_TX_7*%
%TO.N,unconnected-(U1-PB08_A6_D6_TX-Pad7)*%
X97650000Y-71040000D03*
%TO.P,U1,8,PB09_A7_D7_RX_8*%
%TO.N,unconnected-(U1-PB09_A7_D7_RX-Pad8)*%
X114900000Y-71040000D03*
%TO.P,U1,9,PA7_A8_D8_SCK_9*%
%TO.N,unconnected-(U1-PA7_A8_D8_SCK-Pad9)*%
X114900000Y-68500000D03*
%TO.P,U1,10,PA5_A9_D9_MISO_10*%
%TO.N,unconnected-(U1-PA5_A9_D9_MISO-Pad10)*%
X114900000Y-65960000D03*
D15*
%TO.P,U1,11,PA6_A10_D10_MOSI_11*%
%TO.N,unconnected-(U1-PA6_A10_D10_MOSI-Pad11)*%
X114900000Y-63420000D03*
%TO.P,U1,12,3V3_12*%
%TO.N,Net-(D1-VDD)*%
X114900000Y-60880000D03*
%TO.P,U1,13,GND_13*%
%TO.N,Net-(D1-VSS)*%
X114900000Y-58340000D03*
%TO.P,U1,14,5V_14*%
%TO.N,unconnected-(U1-5V-Pad14)*%
X114900000Y-55800000D03*
%TD*%
D10*
%TO.P,D2,3,VSS_3*%
%TO.N,Net-(D1-VSS)*%
X127800000Y-94400000D03*
%TD*%
D12*
%TO.P,D5,1,K_1*%
%TO.N,Net-(D5-K)*%
X153500000Y-86150000D03*
%TD*%
%TO.N,Net-(D1-VSS)*%
D16*
X134998696Y-62700000D02*
X134700000Y-62700000D01*
X128075000Y-56075000D02*
X127530000Y-56075000D01*
X135300000Y-63300000D02*
X135300000Y-63001304D01*
X135300000Y-63001304D02*
X134998696Y-62700000D01*
X138500000Y-66500000D02*
X135300000Y-63300000D01*
X138500000Y-85550000D02*
X138500000Y-66500000D01*
X146900000Y-93950000D02*
X138500000Y-85550000D01*
X134700000Y-62700000D02*
X128075000Y-56075000D01*
%TO.N,Net-(D6-A)*%
X134400000Y-63450000D02*
X134400000Y-85450000D01*
X130210000Y-81260000D02*
X121890000Y-81260000D01*
X134400000Y-85450000D02*
X130210000Y-81260000D01*
%TO.N,Net-(D5-K)*%
X141090000Y-81610000D02*
X140700000Y-82000000D01*
X141090000Y-81260000D02*
X141090000Y-81610000D01*
X145683402Y-81260000D02*
X141090000Y-81260000D01*
X150573402Y-86150000D02*
X145683402Y-81260000D01*
X153500000Y-86150000D02*
X150573402Y-86150000D01*
%TO.N,Net-(D1-VSS)*%
X108100000Y-94050000D02*
X127450000Y-94050000D01*
X127450000Y-94050000D02*
X127800000Y-94400000D01*
X146450000Y-94400000D02*
X146900000Y-93950000D01*
X127800000Y-94400000D02*
X146450000Y-94400000D01*
X125265000Y-58340000D02*
X113900000Y-58340000D01*
X127530000Y-56075000D02*
X125265000Y-58340000D01*
%TD*%
M02*
